<?xml version="1.0" encoding="UTF-8"?>
<!DOCTYPE svg PUBLIC "-//W3C//DTD SVG 1.1//EN" "http://www.w3.org/Graphics/SVG/1.1/DTD/svg11.dtd">
<svg xmlns="http://www.w3.org/2000/svg" fill="white" version="1.1" width="512px" height="512px" style="shape-rendering:geometricPrecision; text-rendering:geometricPrecision; image-rendering:optimizeQuality; fill-rule:evenodd; clip-rule:evenodd" xmlns:xlink="http://www.w3.org/1999/xlink">
<g><path style="opacity:0.994"  d="M 249.5,15.5 C 259.36,13.3496 266.527,16.6829 271,25.5C 271.667,109.5 271.667,193.5 271,277.5C 268.193,284.487 263.027,287.82 255.5,287.5C 247.973,287.82 242.807,284.487 240,277.5C 239.333,193.5 239.333,109.5 240,25.5C 242.022,20.98 245.189,17.6467 249.5,15.5 Z"/></g>
<g><path style="opacity:0.963"  d="M 111.5,81.5 C 125.338,82.5016 131.171,89.8349 129,103.5C 128.439,105.725 127.439,107.725 126,109.5C 80.4125,154.906 60.0792,209.906 65,274.5C 72.0313,332.759 99.1979,378.925 146.5,413C 206.207,451.465 268.873,457.132 334.5,430C 387.624,404.207 422.791,363.04 440,306.5C 457.356,230.905 439.356,165.238 386,109.5C 381.356,98.2132 384.522,90.0466 395.5,85C 400.853,83.8671 405.853,84.7004 410.5,87.5C 465.562,144.86 487.729,213.193 477,292.5C 461.943,370.818 418.443,426.985 346.5,461C 294.913,482.261 242.246,485.261 188.5,470C 115.333,444.833 66.1667,395.667 41,322.5C 18.729,238.606 35.3957,163.606 91,97.5C 95.1667,93.3333 99.3333,89.1667 103.5,85C 106.158,83.522 108.825,82.3554 111.5,81.5 Z"/></g>
</svg>
