<?xml version="1.0" standalone="no"?>
<!DOCTYPE svg PUBLIC "-//W3C//DTD SVG 20010904//EN"
 "http://www.w3.org/TR/2001/REC-SVG-20010904/DTD/svg10.dtd">
<svg version="1.0" xmlns="http://www.w3.org/2000/svg"
 width="899.000000pt" height="899.000000pt" viewBox="0 0 899.000000 899.000000"
 preserveAspectRatio="xMidYMid meet">
<metadata>
Created by potrace 1.14, written by Peter Selinger 2001-2017
</metadata>
<g transform="translate(0.000000,899.000000) scale(0.100000,-0.100000)"
fill="#000000" stroke="none">
<path d="M0 4495 l0 -3685 4495 0 4495 0 0 3685 0 3685 -4495 0 -4495 0 0
-3685z m6285 3484 c212 -51 357 -176 466 -404 83 -175 122 -347 141 -628 18
-269 -15 -648 -86 -987 -13 -63 -21 -118 -18 -121 4 -4 50 -20 103 -37 326
-104 658 -257 904 -417 327 -213 513 -422 597 -671 19 -58 23 -89 23 -199 -1
-120 -3 -137 -31 -212 -48 -128 -125 -242 -249 -369 -263 -268 -648 -485
-1185 -670 -125 -43 -155 -57 -153 -71 1 -10 13 -75 27 -144 118 -592 113
-1101 -14 -1461 -79 -225 -202 -379 -370 -462 -129 -63 -219 -80 -375 -73
-207 10 -406 70 -653 198 -257 132 -507 307 -772 538 -63 56 -117 101 -120
101 -3 0 -44 -34 -90 -76 -443 -396 -894 -661 -1265 -744 -130 -30 -329 -33
-425 -7 -276 73 -461 289 -551 645 -48 189 -62 349 -56 627 6 252 24 422 72
675 14 74 28 149 31 166 l6 31 -165 56 c-813 279 -1338 676 -1453 1099 -26 96
-24 244 5 338 97 316 398 602 889 848 210 105 530 233 719 287 1 0 -5 32 -13
70 -120 563 -136 1075 -44 1430 150 582 547 786 1145 588 317 -104 710 -352
1082 -681 51 -45 97 -82 103 -82 5 0 45 32 87 71 344 315 758 581 1080 692
101 36 263 74 338 80 72 6 189 -4 270 -24z"/>
<path d="M5970 7635 c-229 -46 -499 -177 -769 -373 -116 -84 -285 -222 -376
-304 l-60 -55 91 -99 c184 -202 388 -448 519 -627 27 -37 59 -69 70 -72 11 -2
81 -11 155 -20 204 -25 413 -60 633 -106 109 -23 200 -39 203 -36 8 8 60 295
80 442 26 186 26 609 0 750 -47 257 -128 415 -245 475 -40 20 -148 40 -206 39
-16 -1 -59 -7 -95 -14z"/>
<path d="M2805 7626 c-66 -21 -101 -43 -144 -92 -169 -193 -227 -674 -146
-1224 16 -107 64 -360 71 -371 2 -3 79 11 171 32 188 42 462 89 688 118 143
18 151 20 172 47 12 16 76 99 142 184 113 146 270 332 425 505 68 74 69 76 50
94 -198 188 -498 407 -739 540 -264 145 -545 213 -690 167z"/>
<path d="M4444 6578 c-103 -106 -364 -414 -364 -429 0 -2 195 -4 434 -4 l434
0 -66 80 c-153 185 -358 415 -371 415 -4 0 -34 -28 -67 -62z"/>
<path d="M4015 5779 c-66 -4 -144 -11 -173 -14 l-53 -7 -93 -141 c-201 -306
-428 -703 -553 -965 l-63 -133 63 -132 c127 -266 328 -615 535 -928 l116 -177
86 -6 c424 -33 810 -33 1266 0 l90 6 89 137 c130 200 261 417 359 594 111 202
256 492 256 512 0 19 -148 314 -247 493 -114 207 -412 686 -460 742 -20 23
-936 38 -1218 19z m658 -545 c40 -9 114 -36 166 -61 79 -38 107 -58 180 -131
143 -144 208 -286 218 -477 7 -134 -14 -241 -72 -360 -225 -463 -834 -554
-1186 -177 -107 115 -165 235 -190 392 -47 301 119 618 396 755 144 72 329 94
488 59z"/>
<path d="M3215 5694 c-347 -61 -535 -103 -535 -120 0 -20 107 -346 155 -469
23 -60 45 -119 49 -130 5 -15 24 12 85 125 95 178 182 328 278 483 40 65 73
120 73 123 0 5 -12 4 -105 -12z"/>
<path d="M5712 5688 c123 -191 310 -512 374 -641 21 -42 41 -77 44 -77 13 0
210 567 210 604 0 19 -221 67 -609 132 -34 5 -34 5 -19 -18z"/>
<path d="M2160 5431 c-454 -158 -802 -352 -1015 -565 -120 -120 -185 -239
-185 -339 0 -264 393 -593 995 -835 171 -68 365 -135 372 -128 3 3 42 117 88
253 45 136 118 334 160 438 43 105 84 208 93 230 l15 40 -62 144 c-85 198
-153 381 -230 617 l-66 202 -165 -57z"/>
<path d="M6690 5486 c0 -3 -18 -64 -40 -136 -56 -182 -155 -452 -239 -654
l-71 -170 59 -140 c110 -260 291 -763 291 -811 0 -8 4 -15 8 -15 18 0 245 81
367 130 430 175 754 388 908 598 148 202 112 382 -119 601 -226 214 -567 399
-1023 555 -140 48 -141 49 -141 42z"/>
<path d="M6075 3984 c-90 -168 -177 -320 -280 -490 -52 -86 -88 -154 -81 -154
50 0 620 113 634 125 5 4 -148 458 -186 554 l-30 74 -57 -109z"/>
<path d="M2881 4057 c-77 -202 -205 -587 -197 -594 18 -18 620 -132 633 -120
2 3 -20 43 -49 89 -77 119 -213 351 -298 508 -40 74 -74 137 -76 139 -2 2 -8
-8 -13 -22z"/>
<path d="M2581 3073 c-35 -132 -82 -481 -96 -713 -7 -122 8 -358 30 -481 44
-237 135 -397 257 -449 275 -118 811 122 1385 623 l102 89 -123 136 c-138 152
-315 367 -450 545 -49 64 -94 117 -101 117 -81 0 -613 87 -828 135 -87 19
-159 35 -162 35 -2 0 -9 -17 -14 -37z"/>
<path d="M6399 3106 c-12 -12 -528 -108 -704 -130 -110 -15 -216 -29 -235 -32
-26 -4 -42 -14 -60 -41 -92 -135 -357 -459 -542 -661 l-85 -93 51 -48 c229
-213 516 -416 771 -546 192 -98 358 -145 511 -145 179 0 279 77 355 274 106
273 114 719 23 1216 -34 187 -41 210 -63 210 -10 0 -20 -2 -22 -4z"/>
<path d="M4113 2855 c59 -75 271 -320 337 -389 l65 -68 70 73 c106 112 355
407 355 421 0 2 -193 4 -429 4 l-429 0 31 -41z"/>
</g>
</svg>
